# Blender 4.0.2
# www.blender.org
mtllib tape 1.mtl
o Circle_Baked
v 0.000000 0.022713 -0.025378
v -0.004951 0.022713 -0.024891
v -0.009712 0.022713 -0.023447
v -0.014099 0.022713 -0.021101
v -0.017945 0.022713 -0.017945
v -0.021101 0.022713 -0.014099
v -0.023447 0.022713 -0.009712
v -0.024891 0.022713 -0.004951
v -0.025378 0.022713 0.000000
v -0.024891 0.022713 0.004951
v -0.023447 0.022713 0.009712
v -0.021101 0.022713 0.014099
v -0.017945 0.022713 0.017945
v -0.014099 0.022713 0.021101
v -0.009712 0.022713 0.023447
v -0.004951 0.022713 0.024891
v 0.000000 0.022713 0.025378
v 0.004951 0.022713 0.024891
v 0.009712 0.022713 0.023447
v 0.014099 0.022713 0.021101
v 0.017945 0.022713 0.017945
v 0.021101 0.022713 0.014099
v 0.023447 0.022713 0.009712
v 0.024891 0.022713 0.004951
v 0.025378 0.022713 -0.000000
v 0.024891 0.022713 -0.004951
v 0.023447 0.022713 -0.009712
v 0.021101 0.022713 -0.014099
v 0.017945 0.022713 -0.017945
v 0.014099 0.022713 -0.021101
v 0.009712 0.022713 -0.023447
v 0.004951 0.022713 -0.024891
v 0.000000 0.022713 -0.028702
v -0.005599 0.022713 -0.028150
v -0.010984 0.022713 -0.026517
v -0.015946 0.022713 -0.023865
v -0.020295 0.022713 -0.020295
v -0.023865 0.022713 -0.015946
v -0.026517 0.022713 -0.010984
v -0.028150 0.022713 -0.005599
v -0.028702 0.022713 0.000000
v -0.028150 0.022713 0.005599
v -0.026517 0.022713 0.010984
v -0.023865 0.022713 0.015946
v -0.020295 0.022713 0.020295
v -0.015946 0.022713 0.023865
v -0.010984 0.022713 0.026517
v -0.005599 0.022713 0.028150
v 0.000000 0.022713 0.028702
v 0.005599 0.022713 0.028150
v 0.010984 0.022713 0.026517
v 0.015946 0.022713 0.023865
v 0.020295 0.022713 0.020295
v 0.023865 0.022713 0.015946
v 0.026517 0.022713 0.010984
v 0.028150 0.022713 0.005599
v 0.028702 0.022713 -0.000000
v 0.028150 0.022713 -0.005599
v 0.026517 0.022713 -0.010984
v 0.023865 0.022713 -0.015946
v 0.020295 0.022713 -0.020295
v 0.015946 0.022713 -0.023865
v 0.010984 0.022713 -0.026517
v 0.005599 0.022713 -0.028150
v 0.000000 0.022713 -0.075095
v -0.014650 0.022713 -0.073652
v -0.028738 0.022713 -0.069379
v -0.041721 0.022713 -0.062439
v -0.053100 0.022713 -0.053100
v -0.062439 0.022713 -0.041721
v -0.069379 0.022713 -0.028738
v -0.073652 0.022713 -0.014650
v -0.075095 0.022713 0.000000
v -0.073652 0.022713 0.014650
v -0.069379 0.022713 0.028738
v -0.062439 0.022713 0.041721
v -0.053100 0.022713 0.053100
v -0.041721 0.022713 0.062439
v -0.028738 0.022713 0.069379
v -0.014650 0.022713 0.073652
v 0.000000 0.022713 0.075095
v 0.014650 0.022713 0.073652
v 0.028738 0.022713 0.069379
v 0.041721 0.022713 0.062439
v 0.053100 0.022713 0.053100
v 0.062439 0.022713 0.041721
v 0.069379 0.022713 0.028738
v 0.073652 0.022713 0.014650
v 0.075095 0.022713 -0.000000
v 0.073652 0.022713 -0.014650
v 0.069379 0.022713 -0.028738
v 0.062439 0.022713 -0.041721
v 0.053100 0.022713 -0.053100
v 0.041720 0.022713 -0.062439
v 0.028738 0.022713 -0.069379
v 0.014650 0.022713 -0.073652
v 0.000000 -0.022714 -0.025378
v -0.004951 -0.022712 -0.024891
v -0.009712 -0.022712 -0.023447
v -0.014099 -0.022714 -0.021101
v -0.017945 -0.022714 -0.017945
v -0.021101 -0.022712 -0.014099
v -0.023447 -0.022712 -0.009712
v -0.024891 -0.022714 -0.004951
v -0.025378 -0.022714 0.000000
v -0.024891 -0.022714 0.004951
v -0.023447 -0.022712 0.009712
v -0.021101 -0.022712 0.014099
v -0.017945 -0.022712 0.017945
v -0.014099 -0.022714 0.021101
v -0.009712 -0.022714 0.023447
v -0.004951 -0.022712 0.024891
v 0.000000 -0.022714 0.025378
v 0.004951 -0.022714 0.024891
v 0.009712 -0.022714 0.023447
v 0.014099 -0.022714 0.021101
v 0.017945 -0.022714 0.017945
v 0.021101 -0.022714 0.014099
v 0.023447 -0.022714 0.009712
v 0.024891 -0.022712 0.004951
v 0.025378 -0.022714 -0.000000
v 0.024891 -0.022714 -0.004951
v 0.023447 -0.022714 -0.009712
v 0.021101 -0.022712 -0.014099
v 0.017945 -0.022714 -0.017945
v 0.014099 -0.022712 -0.021101
v 0.009712 -0.022712 -0.023447
v 0.004951 -0.022714 -0.024891
v 0.000000 -0.022714 -0.028702
v -0.005599 -0.022714 -0.028150
v -0.010984 -0.022714 -0.026517
v -0.015946 -0.022714 -0.023865
v -0.020295 -0.022714 -0.020295
v -0.023865 -0.022714 -0.015946
v -0.026517 -0.022714 -0.010984
v -0.028150 -0.022714 -0.005599
v -0.028702 -0.022714 0.000000
v -0.028150 -0.022714 0.005599
v -0.026517 -0.022714 0.010984
v -0.023865 -0.022714 0.015946
v -0.020295 -0.022714 0.020295
v -0.015946 -0.022714 0.023865
v -0.010984 -0.022714 0.026517
v -0.005599 -0.022714 0.028150
v 0.000000 -0.022714 0.028702
v 0.005599 -0.022714 0.028150
v 0.010984 -0.022714 0.026517
v 0.015946 -0.022714 0.023865
v 0.020295 -0.022714 0.020295
v 0.023865 -0.022714 0.015946
v 0.026517 -0.022714 0.010984
v 0.028150 -0.022714 0.005599
v 0.028702 -0.022714 -0.000000
v 0.028150 -0.022714 -0.005599
v 0.026517 -0.022714 -0.010984
v 0.023865 -0.022714 -0.015946
v 0.020295 -0.022714 -0.020295
v 0.015946 -0.022714 -0.023865
v 0.010984 -0.022714 -0.026517
v 0.005599 -0.022714 -0.028150
v 0.000000 -0.022714 -0.075095
v -0.014650 -0.022712 -0.073652
v -0.028738 -0.022714 -0.069379
v -0.041721 -0.022714 -0.062439
v -0.053100 -0.022714 -0.053100
v -0.062439 -0.022712 -0.041721
v -0.069379 -0.022714 -0.028738
v -0.073652 -0.022714 -0.014650
v -0.075095 -0.022714 0.000000
v -0.073652 -0.022712 0.014650
v -0.069379 -0.022714 0.028738
v -0.062439 -0.022712 0.041721
v -0.053100 -0.022712 0.053100
v -0.041721 -0.022714 0.062439
v -0.028738 -0.022714 0.069379
v -0.014650 -0.022712 0.073652
v 0.000000 -0.022714 0.075095
v 0.014650 -0.022714 0.073652
v 0.028738 -0.022714 0.069379
v 0.041721 -0.022712 0.062439
v 0.053100 -0.022712 0.053100
v 0.062439 -0.022714 0.041721
v 0.069379 -0.022712 0.028738
v 0.073652 -0.022712 0.014650
v 0.075095 -0.022714 -0.000000
v 0.073652 -0.022712 -0.014650
v 0.069379 -0.022714 -0.028738
v 0.062439 -0.022714 -0.041721
v 0.053100 -0.022714 -0.053100
v 0.041720 -0.022714 -0.062439
v 0.028738 -0.022714 -0.069379
v 0.014650 -0.022714 -0.073652
vn -0.0000 1.0000 -0.0000
vn -0.0001 -1.0000 0.0003
vn -0.0000 -1.0000 0.0001
vn -0.0001 -1.0000 0.0001
vn -0.0002 -1.0000 0.0002
vn -0.0000 -1.0000 -0.0000
vn -0.0001 -1.0000 -0.0001
vn 0.0001 -1.0000 -0.0000
vn 0.0001 -1.0000 0.0001
vn 0.0002 -1.0000 0.0002
vn 0.0003 -1.0000 0.0001
vn -0.0000 -1.0000 -0.0001
vn -0.0002 -1.0000 -0.0000
vn -0.0001 -1.0000 -0.0000
vn 0.0003 -1.0000 -0.0001
vn 0.0003 -1.0000 -0.0002
vn 0.0002 -1.0000 -0.0001
vn 0.0002 -1.0000 -0.0003
vn 0.0001 -1.0000 -0.0001
vn -0.0002 -1.0000 0.0001
vn -0.0000 -1.0000 0.0003
vn -0.0000 -1.0000 -0.0002
vn 0.0002 -1.0000 0.0003
vn -0.0000 -0.0000 1.0000
vn 0.1951 -0.0000 0.9808
vn 0.3827 -0.0000 0.9239
vn 0.5556 -0.0000 0.8315
vn 0.7071 -0.0000 0.7071
vn 0.8315 -0.0000 0.5556
vn 0.9239 -0.0000 0.3827
vn 0.9808 -0.0000 0.1951
vn 1.0000 -0.0000 -0.0000
vn 0.9808 -0.0000 -0.1951
vn 0.9239 -0.0000 -0.3827
vn 0.8315 -0.0000 -0.5556
vn 0.7071 -0.0000 -0.7071
vn 0.5556 -0.0000 -0.8315
vn 0.3827 -0.0000 -0.9239
vn 0.1951 -0.0000 -0.9808
vn -0.0000 -0.0000 -1.0000
vn -0.1951 -0.0000 -0.9808
vn -0.3827 -0.0000 -0.9239
vn -0.5556 -0.0000 -0.8315
vn -0.7071 -0.0000 -0.7071
vn -0.8315 -0.0000 -0.5556
vn -0.9239 -0.0000 -0.3827
vn -0.9808 -0.0000 -0.1951
vn -1.0000 -0.0000 -0.0000
vn -0.9808 -0.0000 0.1951
vn -0.9239 -0.0000 0.3827
vn -0.8315 -0.0000 0.5556
vn -0.7071 -0.0000 0.7071
vn -0.5556 -0.0000 0.8315
vn -0.3827 -0.0000 0.9239
vn -0.1951 -0.0000 0.9808
vt 0.315626 0.329060
vt 0.303858 0.341804
vt 0.310911 0.351111
vt 0.324220 0.336698
vt 0.165513 0.261724
vt 0.168759 0.244047
vt 0.158120 0.240552
vt 0.154448 0.260544
vt 0.324872 0.227396
vt 0.331241 0.244047
vt 0.341880 0.240552
vt 0.334677 0.221720
vt 0.324872 0.314074
vt 0.334677 0.319750
vt 0.165513 0.279747
vt 0.154448 0.280927
vt 0.315626 0.212411
vt 0.324220 0.204772
vt 0.331241 0.297423
vt 0.341880 0.300918
vt 0.168759 0.297423
vt 0.158120 0.300918
vt 0.303858 0.199667
vt 0.310911 0.190359
vt 0.175128 0.314074
vt 0.165323 0.319750
vt 0.290020 0.189654
vt 0.295261 0.179035
vt 0.184374 0.329060
vt 0.175780 0.336698
vt 0.274644 0.182756
vt 0.277872 0.171234
vt 0.196142 0.341804
vt 0.189089 0.351111
vt 0.258321 0.179240
vt 0.259411 0.167258
vt 0.209980 0.351817
vt 0.204739 0.362436
vt 0.241679 0.179240
vt 0.240589 0.167258
vt 0.225356 0.358714
vt 0.222129 0.370236
vt 0.225356 0.182756
vt 0.222129 0.171234
vt 0.241679 0.362230
vt 0.240589 0.374212
vt 0.209980 0.189653
vt 0.204739 0.179035
vt 0.258321 0.362230
vt 0.259411 0.374212
vt 0.196143 0.199666
vt 0.189089 0.190359
vt 0.274644 0.358714
vt 0.277872 0.370236
vt 0.184374 0.212411
vt 0.175780 0.204772
vt 0.334487 0.279747
vt 0.345552 0.280927
vt 0.290020 0.351817
vt 0.295261 0.362435
vt 0.175128 0.227396
vt 0.165323 0.221720
vt 0.334487 0.261724
vt 0.345552 0.260544
vt 0.177078 0.531066
vt 0.225377 0.541470
vt 0.177078 0.010404
vt 0.131581 0.030813
vt 0.274623 0.541470
vt 0.090634 0.060441
vt 0.322923 0.531066
vt 0.055812 0.098151
vt 0.490393 0.349706
vt 0.500000 0.297400
vt 0.368420 0.510657
vt 0.028453 0.142494
vt 0.500000 0.244070
vt 0.409366 0.481029
vt 0.009607 0.191765
vt 0.490393 0.191765
vt 0.444188 0.443319
vt 0.000000 0.244070
vt 0.471547 0.142494
vt 0.471547 0.398976
vt 0.000000 0.297400
vt 0.444188 0.098152
vt 0.009607 0.349706
vt 0.409366 0.060442
vt 0.028453 0.398976
vt 0.368420 0.030813
vt 0.055812 0.443319
vt 0.322922 0.010404
vt 0.090634 0.481029
vt 0.274623 0.000000
vt 0.131581 0.510658
vt 0.225377 0.000000
vt 0.684374 0.329060
vt 0.675780 0.336698
vt 0.689089 0.351111
vt 0.696142 0.341804
vt 0.834487 0.261724
vt 0.845552 0.260544
vt 0.841880 0.240552
vt 0.831240 0.244047
vt 0.675128 0.227396
vt 0.665323 0.221720
vt 0.658120 0.240552
vt 0.668759 0.244047
vt 0.675128 0.314074
vt 0.665323 0.319750
vt 0.834487 0.279747
vt 0.845552 0.280927
vt 0.684374 0.212411
vt 0.675780 0.204772
vt 0.668759 0.297423
vt 0.658120 0.300918
vt 0.831240 0.297423
vt 0.841880 0.300918
vt 0.696142 0.199667
vt 0.689089 0.190359
vt 0.824872 0.314074
vt 0.834677 0.319750
vt 0.709980 0.189654
vt 0.704739 0.179035
vt 0.815625 0.329060
vt 0.824220 0.336698
vt 0.725356 0.182756
vt 0.722128 0.171234
vt 0.803857 0.341804
vt 0.810911 0.351111
vt 0.741679 0.179240
vt 0.740589 0.167258
vt 0.790020 0.351817
vt 0.795261 0.362436
vt 0.758321 0.179240
vt 0.759411 0.167258
vt 0.774644 0.358714
vt 0.777871 0.370236
vt 0.774644 0.182756
vt 0.777871 0.171234
vt 0.758321 0.362230
vt 0.759411 0.374212
vt 0.790020 0.189653
vt 0.795261 0.179035
vt 0.741679 0.362230
vt 0.740589 0.374212
vt 0.803857 0.199666
vt 0.810911 0.190359
vt 0.725356 0.358714
vt 0.722128 0.370236
vt 0.815625 0.212411
vt 0.824220 0.204772
vt 0.665513 0.279747
vt 0.654448 0.280927
vt 0.709980 0.351817
vt 0.704739 0.362435
vt 0.824872 0.227396
vt 0.834677 0.221720
vt 0.665512 0.261724
vt 0.654448 0.260544
vt 0.774623 0.541470
vt 0.822922 0.531066
vt 0.868419 0.030813
vt 0.822922 0.010404
vt 0.725377 0.541470
vt 0.909366 0.060441
vt 0.677077 0.531066
vt 0.944188 0.098151
vt 0.509607 0.349706
vt 0.631580 0.510657
vt 0.971547 0.142494
vt 0.590634 0.481029
vt 0.990392 0.191765
vt 0.509607 0.191765
vt 0.555812 0.443319
vt 1.000000 0.244070
vt 0.528453 0.142494
vt 0.528453 0.398976
vt 1.000000 0.297400
vt 0.555812 0.098152
vt 0.990393 0.349706
vt 0.590634 0.060442
vt 0.971547 0.398976
vt 0.631580 0.030813
vt 0.944188 0.443319
vt 0.677078 0.010404
vt 0.909366 0.481029
vt 0.725377 0.000000
vt 0.868419 0.510658
vt 0.774623 0.000000
vt 0.777930 0.870607
vt 0.791768 0.870607
vt 0.791768 0.706044
vt 0.777930 0.706039
vt 0.803536 0.870607
vt 0.803536 0.706044
vt 0.000000 0.870607
vt 0.000000 0.885592
vt 0.151964 0.885592
vt 0.151960 0.870607
vt 0.000000 0.902243
vt 0.151964 0.902243
vt 0.000000 0.919920
vt 0.151960 0.919920
vt 0.000000 0.937943
vt 0.151960 0.937943
vt 0.000000 0.955619
vt 0.151964 0.955619
vt 0.000000 0.972270
vt 0.151964 0.972270
vt 0.000000 0.987256
vt 0.151964 0.987256
vt 0.000000 1.000000
vt 0.151960 1.000000
vt 0.741929 0.706038
vt 0.755767 0.706038
vt 0.755767 0.541475
vt 0.741929 0.541475
vt 0.771142 0.706038
vt 0.771142 0.541475
vt 0.787465 0.706038
vt 0.787465 0.541470
vt 0.804108 0.706038
vt 0.804108 0.541470
vt 0.820430 0.706038
vt 0.820430 0.541475
vt 0.835806 0.706038
vt 0.835806 0.541470
vt 0.849644 0.706038
vt 0.849644 0.541470
vt 0.861412 0.706038
vt 0.861412 0.541470
vt 0.817374 0.870607
vt 0.817374 0.706039
vt 0.803536 0.706039
vt 0.832750 0.870607
vt 0.832750 0.706039
vt 0.849073 0.870607
vt 0.849073 0.706039
vt 0.865715 0.870607
vt 0.865715 0.706039
vt 0.882038 0.870607
vt 0.882038 0.706044
vt 0.897414 0.870607
vt 0.897414 0.706039
vt 0.911251 0.870607
vt 0.911251 0.706039
vt 0.672285 0.870607
vt 0.684053 0.870607
vt 0.684053 0.706039
vt 0.672285 0.706039
vt 0.697891 0.870607
vt 0.697891 0.706044
vt 0.713266 0.870607
vt 0.713266 0.706039
vt 0.729589 0.870607
vt 0.729589 0.706044
vt 0.746232 0.870607
vt 0.746232 0.706044
vt 0.762555 0.870607
vt 0.762555 0.706039
vt 0.034822 0.706038
vt 0.075768 0.706038
vt 0.075768 0.541470
vt 0.034822 0.541475
vt 0.000000 0.706038
vt 0.000000 0.541470
vt 0.312607 0.870607
vt 0.353553 0.870607
vt 0.353553 0.706039
vt 0.312607 0.706039
vt 0.267110 0.870607
vt 0.267110 0.706039
vt 0.218811 0.870607
vt 0.218811 0.706044
vt 0.169565 0.870607
vt 0.169565 0.706039
vt 0.121265 0.870607
vt 0.121265 0.706039
vt 0.075768 0.870607
vt 0.075768 0.706039
vt 0.034822 0.870607
vt 0.034822 0.706044
vt 0.000000 0.870607
vt 0.000000 0.706039
vt 0.700983 0.706039
vt 0.741929 0.706039
vt 0.741929 0.541470
vt 0.700983 0.541475
vt 0.655485 0.706039
vt 0.655485 0.541475
vt 0.607186 0.706039
vt 0.607186 0.541470
vt 0.557940 0.706039
vt 0.557940 0.541470
vt 0.509641 0.706039
vt 0.509641 0.541475
vt 0.464143 0.706039
vt 0.464143 0.541470
vt 0.423197 0.706038
vt 0.423197 0.541470
vt 0.388375 0.706038
vt 0.388375 0.541470
vt 0.631339 0.870607
vt 0.631339 0.706044
vt 0.585842 0.870607
vt 0.585842 0.706044
vt 0.537542 0.870607
vt 0.537542 0.706039
vt 0.488296 0.870607
vt 0.488296 0.706044
vt 0.439997 0.870607
vt 0.439997 0.706044
vt 0.394500 0.870607
vt 0.394500 0.706039
vt 0.353553 0.870607
vt 0.353553 0.706044
vt 0.353553 0.706039
vt 0.388375 0.706039
vt 0.388375 0.541475
vt 0.353553 0.541470
vt 0.312607 0.706039
vt 0.312607 0.541470
vt 0.267110 0.706039
vt 0.267110 0.541470
vt 0.218810 0.706038
vt 0.218810 0.541470
vt 0.169565 0.706038
vt 0.169565 0.541470
vt 0.121265 0.706038
vt 0.121265 0.541470
s 1
usemtl Circle_Baked
f 31/1/1 30/2/1 62/3/1 63/4/1
f 18/5/1 17/6/1 49/7/1 50/8/1
f 5/9/1 4/10/1 36/11/1 37/12/1
f 32/13/1 31/1/1 63/4/1 64/14/1
f 19/15/1 18/5/1 50/8/1 51/16/1
f 6/17/1 5/9/1 37/12/1 38/18/1
f 1/19/1 32/13/1 64/14/1 33/20/1
f 20/21/1 19/15/1 51/16/1 52/22/1
f 7/23/1 6/17/1 38/18/1 39/24/1
f 21/25/1 20/21/1 52/22/1 53/26/1
f 8/27/1 7/23/1 39/24/1 40/28/1
f 22/29/1 21/25/1 53/26/1 54/30/1
f 9/31/1 8/27/1 40/28/1 41/32/1
f 23/33/1 22/29/1 54/30/1 55/34/1
f 10/35/1 9/31/1 41/32/1 42/36/1
f 24/37/1 23/33/1 55/34/1 56/38/1
f 11/39/1 10/35/1 42/36/1 43/40/1
f 25/41/1 24/37/1 56/38/1 57/42/1
f 12/43/1 11/39/1 43/40/1 44/44/1
f 26/45/1 25/41/1 57/42/1 58/46/1
f 13/47/1 12/43/1 44/44/1 45/48/1
f 27/49/1 26/45/1 58/46/1 59/50/1
f 14/51/1 13/47/1 45/48/1 46/52/1
f 28/53/1 27/49/1 59/50/1 60/54/1
f 15/55/1 14/51/1 46/52/1 47/56/1
f 2/57/1 1/19/1 33/20/1 34/58/1
f 29/59/1 28/53/1 60/54/1 61/60/1
f 16/61/1 15/55/1 47/56/1 48/62/1
f 3/63/1 2/57/1 34/58/1 35/64/1
f 30/2/1 29/59/1 61/60/1 62/3/1
f 17/6/1 16/61/1 48/62/1 49/7/1
f 4/10/1 3/63/1 35/64/1 36/11/1
f 58/46/1 57/42/1 89/65/1 90/66/1
f 45/48/1 44/44/1 76/67/1 77/68/1
f 59/50/1 58/46/1 90/66/1 91/69/1
f 46/52/1 45/48/1 77/68/1 78/70/1
f 60/54/1 59/50/1 91/69/1 92/71/1
f 47/56/1 46/52/1 78/70/1 79/72/1
f 34/58/1 33/20/1 65/73/1 66/74/1
f 61/60/1 60/54/1 92/71/1 93/75/1
f 48/62/1 47/56/1 79/72/1 80/76/1
f 35/64/1 34/58/1 66/74/1 67/77/1
f 62/3/1 61/60/1 93/75/1 94/78/1
f 49/7/1 48/62/1 80/76/1 81/79/1
f 36/11/1 35/64/1 67/77/1 68/80/1
f 63/4/1 62/3/1 94/78/1 95/81/1
f 50/8/1 49/7/1 81/79/1 82/82/1
f 37/12/1 36/11/1 68/80/1 69/83/1
f 64/14/1 63/4/1 95/81/1 96/84/1
f 51/16/1 50/8/1 82/82/1 83/85/1
f 38/18/1 37/12/1 69/83/1 70/86/1
f 33/20/1 64/14/1 96/84/1 65/73/1
f 52/22/1 51/16/1 83/85/1 84/87/1
f 39/24/1 38/18/1 70/86/1 71/88/1
f 53/26/1 52/22/1 84/87/1 85/89/1
f 40/28/1 39/24/1 71/88/1 72/90/1
f 54/30/1 53/26/1 85/89/1 86/91/1
f 41/32/1 40/28/1 72/90/1 73/92/1
f 55/34/1 54/30/1 86/91/1 87/93/1
f 42/36/1 41/32/1 73/92/1 74/94/1
f 56/38/1 55/34/1 87/93/1 88/95/1
f 43/40/1 42/36/1 74/94/1 75/96/1
f 57/42/1 56/38/1 88/95/1 89/65/1
f 44/44/1 43/40/1 75/96/1 76/67/1
f 127/97/2 159/98/3 158/99/4 126/100/5
f 114/101/6 146/102/6 145/103/6 113/104/7
f 101/105/3 133/106/3 132/107/8 100/108/9
f 128/109/3 160/110/3 159/98/3 127/97/2
f 115/111/6 147/112/6 146/102/6 114/101/6
f 102/113/10 134/114/9 133/106/3 101/105/3
f 97/115/4 129/116/6 160/110/3 128/109/3
f 116/117/6 148/118/6 147/112/6 115/111/6
f 103/119/11 135/120/8 134/114/9 102/113/10
f 117/121/6 149/122/6 148/118/6 116/117/6
f 104/123/8 136/124/8 135/120/8 103/119/11
f 118/125/6 150/126/6 149/122/6 117/121/6
f 105/127/6 137/128/6 136/124/8 104/123/8
f 119/129/7 151/130/12 150/126/6 118/125/6
f 106/131/8 138/132/6 137/128/6 105/127/6
f 120/133/13 152/134/14 151/130/12 119/129/7
f 107/135/15 139/136/8 138/132/6 106/131/8
f 121/137/4 153/138/6 152/134/14 120/133/13
f 108/139/16 140/140/17 139/136/8 107/135/15
f 122/141/6 154/142/6 153/138/6 121/137/4
f 109/143/18 141/144/19 140/140/17 108/139/16
f 123/145/14 155/146/6 154/142/6 122/141/6
f 110/147/12 142/148/12 141/144/19 109/143/18
f 124/149/20 156/150/4 155/146/6 123/145/14
f 111/151/19 143/152/8 142/148/12 110/147/12
f 98/153/21 130/154/3 129/116/6 97/115/4
f 125/155/5 157/156/4 156/150/4 124/149/20
f 112/157/22 144/158/12 143/152/8 111/151/19
f 99/159/23 131/160/9 130/154/3 98/153/21
f 126/100/5 158/99/4 157/156/4 125/155/5
f 113/104/7 145/103/6 144/158/12 112/157/22
f 100/108/9 132/107/8 131/160/9 99/159/23
f 154/142/6 186/161/6 185/162/6 153/138/6
f 141/144/19 173/163/6 172/164/6 140/140/17
f 155/146/6 187/165/6 186/161/6 154/142/6
f 142/148/12 174/166/6 173/163/6 141/144/19
f 156/150/4 188/167/6 187/165/6 155/146/6
f 143/152/8 175/168/6 174/166/6 142/148/12
f 130/154/3 162/74/6 161/169/6 129/116/6
f 157/156/4 189/170/6 188/167/6 156/150/4
f 144/158/12 176/171/6 175/168/6 143/152/8
f 131/160/9 163/77/6 162/74/6 130/154/3
f 158/99/4 190/172/6 189/170/6 157/156/4
f 145/103/6 177/173/6 176/171/6 144/158/12
f 132/107/8 164/174/6 163/77/6 131/160/9
f 159/98/3 191/175/6 190/172/6 158/99/4
f 146/102/6 178/176/6 177/173/6 145/103/6
f 133/106/3 165/177/6 164/174/6 132/107/8
f 160/110/3 192/178/6 191/175/6 159/98/3
f 147/112/6 179/179/6 178/176/6 146/102/6
f 134/114/9 166/180/6 165/177/6 133/106/3
f 129/116/6 161/169/6 192/178/6 160/110/3
f 148/118/6 180/181/6 179/179/6 147/112/6
f 135/120/8 167/182/6 166/180/6 134/114/9
f 149/122/6 181/183/6 180/181/6 148/118/6
f 136/124/8 168/184/6 167/182/6 135/120/8
f 150/126/6 182/185/6 181/183/6 149/122/6
f 137/128/6 169/186/6 168/184/6 136/124/8
f 151/130/12 183/187/6 182/185/6 150/126/6
f 138/132/6 170/188/6 169/186/6 137/128/6
f 152/134/14 184/189/6 183/187/6 151/130/12
f 139/136/8 171/190/6 170/188/6 138/132/6
f 153/138/6 185/162/6 184/189/6 152/134/14
f 140/140/17 172/164/6 171/190/6 139/136/8
f 1/191/24 2/192/25 98/193/25 97/194/24
f 2/192/25 3/195/26 99/196/26 98/193/25
f 3/197/26 4/198/27 100/199/27 99/200/26
f 4/198/27 5/201/28 101/202/28 100/199/27
f 5/201/28 6/203/29 102/204/29 101/202/28
f 6/203/29 7/205/30 103/206/30 102/204/29
f 7/205/30 8/207/31 104/208/31 103/206/30
f 8/207/31 9/209/32 105/210/32 104/208/31
f 9/209/32 10/211/33 106/212/33 105/210/32
f 10/211/33 11/213/34 107/214/34 106/212/33
f 11/215/34 12/216/35 108/217/35 107/218/34
f 12/216/35 13/219/36 109/220/36 108/217/35
f 13/219/36 14/221/37 110/222/37 109/220/36
f 14/221/37 15/223/38 111/224/38 110/222/37
f 15/223/38 16/225/39 112/226/39 111/224/38
f 16/225/39 17/227/40 113/228/40 112/226/39
f 17/227/40 18/229/41 114/230/41 113/228/40
f 18/229/41 19/231/42 115/232/42 114/230/41
f 19/195/42 20/233/43 116/234/43 115/235/42
f 20/233/43 21/236/44 117/237/44 116/234/43
f 21/236/44 22/238/45 118/239/45 117/237/44
f 22/238/45 23/240/46 119/241/46 118/239/45
f 23/240/46 24/242/47 120/243/47 119/241/46
f 24/242/47 25/244/48 121/245/48 120/243/47
f 25/244/48 26/246/49 122/247/49 121/245/48
f 26/248/49 27/249/50 123/250/50 122/251/49
f 27/249/50 28/252/51 124/253/51 123/250/50
f 28/252/51 29/254/52 125/255/52 124/253/51
f 29/254/52 30/256/53 126/257/53 125/255/52
f 30/256/53 31/258/54 127/259/54 126/257/53
f 31/258/54 32/260/55 128/261/55 127/259/54
f 32/260/55 1/191/24 97/194/24 128/261/55
f 66/262/41 65/263/40 161/264/40 162/265/41
f 67/266/42 66/262/41 162/265/41 163/267/42
f 68/268/43 67/269/42 163/270/42 164/271/43
f 69/272/44 68/268/43 164/271/43 165/273/44
f 70/274/45 69/272/44 165/273/44 166/275/45
f 71/276/46 70/274/45 166/275/45 167/277/46
f 72/278/47 71/276/46 167/277/46 168/279/47
f 73/280/48 72/278/47 168/279/47 169/281/48
f 74/282/49 73/280/48 169/281/48 170/283/49
f 75/284/50 74/282/49 170/283/49 171/285/50
f 76/286/51 75/287/50 171/288/50 172/289/51
f 77/290/52 76/286/51 172/289/51 173/291/52
f 78/292/53 77/290/52 173/291/52 174/293/53
f 79/294/54 78/292/53 174/293/53 175/295/54
f 80/296/55 79/294/54 175/295/54 176/297/55
f 81/298/24 80/296/55 176/297/55 177/299/24
f 82/300/25 81/298/24 177/299/24 178/301/25
f 83/302/26 82/300/25 178/301/25 179/303/26
f 84/304/27 83/248/26 179/251/26 180/305/27
f 85/306/28 84/304/27 180/305/27 181/307/28
f 86/308/29 85/306/28 181/307/28 182/309/29
f 87/310/30 86/308/29 182/309/29 183/311/30
f 88/312/31 87/310/30 183/311/30 184/313/31
f 89/314/32 88/312/31 184/313/31 185/315/32
f 90/316/33 89/314/32 185/315/32 186/317/33
f 91/318/34 90/319/33 186/320/33 187/321/34
f 92/322/35 91/318/34 187/321/34 188/323/35
f 93/324/36 92/322/35 188/323/35 189/325/36
f 94/326/37 93/324/36 189/325/36 190/327/37
f 95/328/38 94/326/37 190/327/37 191/329/38
f 96/330/39 95/328/38 191/329/38 192/331/39
f 65/263/40 96/330/39 192/331/39 161/264/40
